<svg xmlns="http://www.w3.org/2000/svg" version="1.1" xmlns:xlink="http://www.w3.org/1999/xlink" xmlns:svgjs="http://svgjs.dev/svgjs" width="128" height="128" viewBox="0 0 128 128"><g transform="matrix(0.8046875,0,0,0.8046875,12.760752631578946,22.716721186051956)"><svg viewBox="0 0 95 77" data-background-color="#262626" preserveAspectRatio="xMidYMid meet" height="103" width="128" xmlns="http://www.w3.org/2000/svg" xmlns:xlink="http://www.w3.org/1999/xlink"><g id="tight-bounds" transform="matrix(1,0,0,1,-0.24049999999999727,-0.14690395039382054)"><svg viewBox="0 0 95.481 77.29380790078764" height="77.29380790078764" width="95.481"><g><svg viewBox="0 0 95.481 77.29380790078764" height="77.29380790078764" width="95.481"><g><svg viewBox="0 0 95.481 77.29380790078764" height="77.29380790078764" width="95.481"><g id="textblocktransform"><svg viewBox="0 0 95.481 77.29380790078764" height="77.29380790078764" width="95.481" id="textblock"><g><svg viewBox="0 0 95.481 77.29380790078764" height="77.29380790078764" width="95.481"><g><svg viewBox="0 0 95.481 77.29380790078764" height="77.29380790078764" width="95.481"><g><svg xmlns="http://www.w3.org/2000/svg" xmlns:xlink="http://www.w3.org/1999/xlink" version="1.1" x="0" y="0" viewBox="4.9995 13.57205104139477 90.00076814621133 72.85744895860523" enable-background="new 0 0 100 100" xml:space="preserve" height="77.29380790078764" width="95.481" class="icon-icon-0" data-fill-palette-color="accent" id="icon-0"><g fill="#ffffff" data-fill-palette-color="accent"><path fill="#000000" d="M23.81 76.102c-2.362 2.361-2.362 6.192 0 8.556 2.362 2.362 6.193 2.362 8.556 0 2.361-2.363 2.361-6.194 0-8.556C30.003 73.739 26.172 73.739 23.81 76.102zM94.226 14.432l-0.086-0.085c-1.157-1.158-3.192-1-4.544 0.352L66.65 37.643 51.499 22.492 8.754 65.237 6.787 63.27l42.745-42.746c-2.363-2.348-6.183-2.343-8.541 0.015L6.771 54.757c-2.362 2.363-2.362 6.195 0 8.558L20.41 76.951c0.407-0.912 0.983-1.769 1.732-2.517 3.284-3.284 8.608-3.284 11.891 0 0.776 0.774 1.366 1.667 1.775 2.616l35.124-35.125-0.006-0.004 22.945-22.945C95.226 17.623 95.383 15.589 94.226 14.432z" data-fill-palette-color="accent"></path></g></svg></g></svg></g></svg></g></svg></g></svg></g></svg></g><defs></defs></svg><rect width="95.481" height="77.29380790078764" fill="none" stroke="none" visibility="hidden"></rect></g></svg></g></svg>